<svg width="100" height="100" viewBox="0 0 100 100" fill="none" xmlns="http://www.w3.org/2000/svg">
<path fill-rule="evenodd" clip-rule="evenodd" d="M46.4735 10.0639C56.7938 9.18241 65.094 17.5947 72.4866 24.9121C79.9758 32.3251 88.4142 40.5769 87.9842 51.1521C87.5624 61.5252 77.8933 68.1683 70.4367 75.3244C63.2678 82.2044 56.364 90.6855 46.4735 90.9899C36.4027 91.2999 27.7267 84.4141 21.0019 76.8459C14.679 69.7301 10.3736 60.6816 11.0747 51.1521C11.735 42.1784 18.6701 35.8007 24.5216 29.0087C31.0883 21.3866 36.4983 10.9158 46.4735 10.0639Z" fill="#E0F1FF"/>
<circle cx="29.5" cy="69.5" r="18.5" fill="#85C5FF"/>
<path fill-rule="evenodd" clip-rule="evenodd" d="M63 61H61C59.896 61 59 60.104 59 59V49C59 47.896 59.896 47 61 47H63C65.21 47 67 48.79 67 51V57C67 59.21 65.21 61 63 61Z" stroke="#0083F8" stroke-width="2" stroke-linecap="round" stroke-linejoin="round"/>
<path fill-rule="evenodd" clip-rule="evenodd" d="M37 61H35C32.79 61 31 59.21 31 57V51C31 48.79 32.79 47 35 47H37C38.104 47 39 47.896 39 49V59C39 60.104 38.104 61 37 61Z" stroke="#0083F8" stroke-width="2" stroke-linecap="round" stroke-linejoin="round"/>
<path d="M62 47V46C62 38.82 56.18 33 49 33V33C41.82 33 36 38.82 36 46V47" stroke="#0083F8" stroke-width="2" stroke-linecap="round" stroke-linejoin="round"/>
<path fill-rule="evenodd" clip-rule="evenodd" d="M50.25 69.5H47.75C46.37 69.5 45.25 68.38 45.25 67V67C45.25 65.62 46.37 64.5 47.75 64.5H50.25C51.63 64.5 52.75 65.62 52.75 67V67C52.75 68.38 51.63 69.5 50.25 69.5Z" stroke="#0083F8" stroke-width="2" stroke-linecap="round" stroke-linejoin="round"/>
<path d="M52.75 67H57C59.21 67 61 65.21 61 63V61" stroke="#0083F8" stroke-width="2" stroke-linecap="round" stroke-linejoin="round"/>
</svg>
