<svg width="100" height="100" viewBox="0 0 100 100" fill="none" xmlns="http://www.w3.org/2000/svg">
<path fill-rule="evenodd" clip-rule="evenodd" d="M50.3306 12.2927C60.4755 11.9365 71.2555 10.8696 79.2116 17.267C87.8996 24.2528 92.5449 35.3342 92.9652 46.5746C93.4016 58.2425 89.7397 70.0546 81.49 78.1942C73.337 86.2383 61.5869 90.2783 50.3306 88.6405C40.1962 87.1659 34.4604 77.3636 26.9863 70.2637C19.0532 62.7277 6.82436 57.5734 6.04748 46.5746C5.25367 35.336 14.5536 26.0615 23.3814 19.2274C31.041 13.2977 40.7023 12.6308 50.3306 12.2927Z" fill="#E0F1FF"/>
<circle cx="31.5" cy="64.5" r="18.5" fill="#85C5FF"/>
<path d="M40.8738 35.9419C38.7498 38.1219 37.2078 40.8619 36.4658 43.9179" stroke="#0083F8" stroke-width="2" stroke-linecap="round" stroke-linejoin="round"/>
<path d="M49.5801 64.886C50.7621 65.142 51.9881 65.284 53.2481 65.284C55.0321 65.284 56.7541 65.012 58.3741 64.51" stroke="#0083F8" stroke-width="2" stroke-linecap="round" stroke-linejoin="round"/>
<path d="M36.4678 52.082C37.2098 55.138 38.7518 57.878 40.8758 60.058" stroke="#0083F8" stroke-width="2" stroke-linecap="round" stroke-linejoin="round"/>
<path d="M69.8097 52.928C68.9717 55.752 67.4237 58.266 65.3857 60.284" stroke="#0083F8" stroke-width="2" stroke-linecap="round" stroke-linejoin="round"/>
<path d="M65.3857 35.7158C67.4237 37.7338 68.9697 40.2478 69.8097 43.0718" stroke="#0083F8" stroke-width="2" stroke-linecap="round" stroke-linejoin="round"/>
<path d="M49.5801 31.114C50.7621 30.858 51.9881 30.716 53.2481 30.716C55.0321 30.716 56.7541 30.988 58.3741 31.49" stroke="#0083F8" stroke-width="2" stroke-linecap="round" stroke-linejoin="round"/>
<path d="M74.0678 44.4642C76.0204 46.4168 76.0204 49.5827 74.0678 51.5353C72.1151 53.4879 68.9493 53.4879 66.9967 51.5353C65.0441 49.5827 65.0441 46.4168 66.9967 44.4642C68.9493 42.5116 72.1151 42.5116 74.0678 44.4642" stroke="#0083F8" stroke-width="2" stroke-linecap="round" stroke-linejoin="round"/>
<path d="M48.6537 59.1383C50.6063 61.0909 50.6063 64.2567 48.6537 66.2094C46.7011 68.162 43.5353 68.162 41.5826 66.2094C39.63 64.2567 39.63 61.0909 41.5826 59.1383C43.5353 57.1857 46.7011 57.1857 48.6537 59.1383" stroke="#0083F8" stroke-width="2" stroke-linecap="round" stroke-linejoin="round"/>
<path d="M48.6537 29.7904C50.6063 31.743 50.6063 34.9088 48.6537 36.8615C46.7011 38.8141 43.5353 38.8141 41.5826 36.8615C39.63 34.9088 39.63 31.743 41.5826 29.7904C43.5353 27.8378 46.7011 27.8378 48.6537 29.7904" stroke="#0083F8" stroke-width="2" stroke-linecap="round" stroke-linejoin="round"/>
</svg>
