<svg width="100" height="100" viewBox="0 0 100 100" fill="none" xmlns="http://www.w3.org/2000/svg">
<path fill-rule="evenodd" clip-rule="evenodd" d="M39.7418 10.0175C49.3593 10.5269 51.3498 24.2653 58.7475 30.4911C67.7823 38.0945 85.1882 37.9267 86.8704 49.6798C88.5271 61.2549 73.9146 67.6827 65.1683 75.3511C57.3771 82.1819 50.0603 91.0773 39.7418 90.9995C29.4654 90.922 20.2464 83.7003 14.6925 74.9703C9.99579 67.5876 12.716 58.4224 13.455 49.6798C14.0954 42.1029 14.4431 34.6864 18.6318 28.3665C23.9998 20.267 30.1026 9.50699 39.7418 10.0175Z" fill="#E0F1FF"/>
<circle cx="64.5" cy="30.5" r="18.5" fill="#85C5FF"/>
<path fill-rule="evenodd" clip-rule="evenodd" d="M31.2365 51.934C30.9225 51.352 30.9225 50.646 31.2365 50.064C35.0205 43.066 42.0105 37 49.0005 37C55.9905 37 62.9805 43.066 66.7645 50.066C67.0785 50.648 67.0785 51.354 66.7645 51.936C62.9805 58.934 55.9905 65 49.0005 65C42.0105 65 35.0205 58.934 31.2365 51.934Z" stroke="#0083F8" stroke-width="2" stroke-linecap="round" stroke-linejoin="round"/>
<path d="M53.2426 46.7574C55.5858 49.1005 55.5858 52.8995 53.2426 55.2426C50.8995 57.5858 47.1005 57.5858 44.7574 55.2426C42.4142 52.8995 42.4142 49.1005 44.7574 46.7574C47.1005 44.4142 50.8995 44.4142 53.2426 46.7574" stroke="#0083F8" stroke-width="2" stroke-linecap="round" stroke-linejoin="round"/>
</svg>
