<svg width="100" height="100" viewBox="0 0 100 100" fill="none" xmlns="http://www.w3.org/2000/svg">
<path fill-rule="evenodd" clip-rule="evenodd" d="M46.4735 10.0639C56.7938 9.18241 65.094 17.5947 72.4866 24.9121C79.9758 32.3251 88.4142 40.5769 87.9842 51.1521C87.5624 61.5252 77.8933 68.1683 70.4367 75.3244C63.2678 82.2044 56.364 90.6855 46.4735 90.9899C36.4027 91.2999 27.7267 84.4141 21.0019 76.8459C14.679 69.7301 10.3736 60.6816 11.0747 51.1521C11.735 42.1784 18.6701 35.8007 24.5216 29.0087C31.0883 21.3866 36.4983 10.9158 46.4735 10.0639Z" fill="#E0F1FF"/>
<circle cx="29.5" cy="69.5" r="18.5" fill="#85C5FF"/>
<path fill-rule="evenodd" clip-rule="evenodd" d="M59.1962 51.247L48.3982 59.8854C47.6021 60.5223 46.4544 60.4587 45.7335 59.7378L40.2628 54.2671C39.5419 53.5462 39.4783 52.3985 40.1152 51.6024L48.7536 40.8044C52.7037 35.8667 58.6841 32.9924 65.0073 32.9924V32.9924C66.1124 32.9924 67.0082 33.8882 67.0082 34.9933V34.9933C67.0082 41.3165 64.1338 47.2969 59.1962 51.247Z" stroke="#0083F8" stroke-width="2" stroke-linecap="round" stroke-linejoin="round"/>
<path d="M57.0032 53.0007V61.7684C57.0032 62.5262 56.575 63.219 55.8972 63.558L51.0633 65.975C50.5445 66.2344 49.9387 66.2559 49.4028 66.0339C48.8669 65.8119 48.4538 65.3684 48.2703 64.8181L46.999 61.0041" stroke="#0083F8" stroke-width="2" stroke-linecap="round" stroke-linejoin="round"/>
<path d="M38.9965 53.0007L35.1826 51.7294C34.6323 51.546 34.1887 51.1328 33.9668 50.597C33.7448 50.0611 33.7663 49.4553 34.0257 48.9365L36.4427 44.1026C36.7816 43.4248 37.4743 42.9966 38.2322 42.9966H46.9998" stroke="#0083F8" stroke-width="2" stroke-linecap="round" stroke-linejoin="round"/>
<path fill-rule="evenodd" clip-rule="evenodd" d="M36.4957 68.1808L30.9932 69.0075L31.8198 63.505C32.088 61.72 33.4892 60.3187 35.2742 60.0506V60.0506C36.5641 59.8567 37.8695 60.2866 38.7918 61.2089C39.7141 62.1313 40.144 63.4366 39.9502 64.7265V64.7265C39.682 66.5115 38.2807 67.9127 36.4957 68.1808V68.1808Z" stroke="#0083F8" stroke-width="2" stroke-linecap="round" stroke-linejoin="round"/>
</svg>
