<svg width="24" height="24" viewBox="0 0 24 24" fill="none" xmlns="http://www.w3.org/2000/svg">
                                <path fill-rule="evenodd" clip-rule="evenodd" d="M9.52364 15.7402C5.03897 15.7402 1.2088 16.4181 1.2088 19.1341C1.2088 21.8489 5.01447 22.5524 9.52364 22.5524C14.0083 22.5524 17.8385 21.8734 17.8385 19.1586C17.8385 16.4437 14.0328 15.7402 9.52364 15.7402Z" stroke="#3772FF" stroke-width="1.5" stroke-linecap="round" stroke-linejoin="round"></path>
                                <path fill-rule="evenodd" clip-rule="evenodd" d="M9.52361 11.8667C12.4823 11.8667 14.8529 9.49484 14.8529 6.53734C14.8529 3.57867 12.4823 1.20801 9.52361 1.20801C6.56611 1.20801 4.19427 3.57867 4.19427 6.53734C4.19427 9.49484 6.56611 11.8667 9.52361 11.8667Z" stroke="#3772FF" stroke-width="1.5" stroke-linecap="round" stroke-linejoin="round"></path>
                                <path d="M20.4048 8.11328V12.7916" stroke="#3772FF" stroke-width="1.5" stroke-linecap="round" stroke-linejoin="round"></path>
                                <path d="M22.7917 10.4525H18.02" stroke="#3772FF" stroke-width="1.5" stroke-linecap="round" stroke-linejoin="round"></path>
                            </svg>