<svg width="100" height="100" viewBox="0 0 100 100" fill="none" xmlns="http://www.w3.org/2000/svg">
<path fill-rule="evenodd" clip-rule="evenodd" d="M39.7418 10.0175C49.3593 10.5269 51.3498 24.2653 58.7475 30.4911C67.7823 38.0945 85.1882 37.9267 86.8704 49.6798C88.5271 61.2549 73.9146 67.6827 65.1683 75.3511C57.3771 82.1819 50.0603 91.0773 39.7418 90.9995C29.4654 90.922 20.2464 83.7003 14.6925 74.9703C9.99579 67.5876 12.716 58.4224 13.455 49.6798C14.0954 42.1029 14.4431 34.6864 18.6318 28.3665C23.9998 20.267 30.1026 9.50699 39.7418 10.0175Z" fill="#E0F1FF"/>
<circle cx="64.5" cy="30.5" r="18.5" fill="#85C5FF"/>
<path d="M36.9948 44.9975H32.9932" stroke="#0083F8" stroke-width="2" stroke-linecap="round" stroke-linejoin="round"/>
<path d="M36.9948 57.0025H32.9932" stroke="#0083F8" stroke-width="2" stroke-linecap="round" stroke-linejoin="round"/>
<path d="M32.9939 51H28.9922" stroke="#0083F8" stroke-width="2" stroke-linecap="round" stroke-linejoin="round"/>
<path d="M36.3223 38.2667C41.4724 33.1166 49.2177 31.5759 55.9467 34.3631C62.6756 37.1504 67.063 43.7166 67.063 50.9999C67.063 58.2833 62.6756 64.8495 55.9467 67.6367C49.2177 70.4239 41.4724 68.8832 36.3223 63.7331" stroke="#0083F8" stroke-width="2" stroke-linecap="round" stroke-linejoin="round"/>
<path fill-rule="evenodd" clip-rule="evenodd" d="M51.1217 43.8754L56.1244 48.8768C56.6873 49.4395 57.0038 50.2029 57.0038 50.9989C57.0038 51.7949 56.6878 52.5583 56.125 53.1212L51.1237 58.124C50.5609 58.6869 49.7975 59.0033 49.0015 59.0033C48.2055 59.0033 47.4421 58.6874 46.8792 58.1246L41.8765 53.1232C41.3135 52.5605 40.9971 51.7971 40.9971 51.0011C40.9971 50.2051 41.3131 49.4417 41.8759 48.8788L46.8772 43.876C47.4399 43.3131 48.2033 42.9966 48.9993 42.9966C49.7953 42.9966 50.5587 43.3126 51.1217 43.8754V43.8754Z" stroke="#0083F8" stroke-width="2" stroke-linecap="round" stroke-linejoin="round"/>
</svg>
