<?xml version="1.0" encoding="utf-8"?>
<!-- Generator: Adobe Illustrator 26.2.1, SVG Export Plug-In . SVG Version: 6.00 Build 0)  -->
<svg version="1.1" id="Layer_1" xmlns="http://www.w3.org/2000/svg" xmlns:xlink="http://www.w3.org/1999/xlink" x="0px" y="0px"
	 viewBox="0 0 305 423" style="enable-background:new 0 0 305 423;" xml:space="preserve">
<style type="text/css">
	.st0{fill:#0083F8;}
	.st1{fill:#73B1E0;}
	.st2{fill:#F39568;fill-opacity:0.2;}
	.st3{fill:#F39568;}
</style>
<path class="st0" d="M305,251.5c0,11.6-3.4,22.9-9.9,32.5c-6.4,9.6-15.6,17.1-26.3,21.5s-22.5,5.6-33.8,3.3
	c-11.3-2.3-21.8-7.8-30-16c-8.2-8.2-13.8-18.6-16-30c-2.3-11.3-1.1-23.1,3.3-33.8c4.4-10.7,11.9-19.8,21.5-26.3
	c9.6-6.4,20.9-9.9,32.5-9.9v6.4c-10.3,0-20.4,3.1-29,8.8c-8.6,5.7-15.3,13.9-19.2,23.4c-3.9,9.5-5,20-3,30.1
	c2,10.1,7,19.4,14.3,26.7c7.3,7.3,16.6,12.3,26.7,14.3c10.1,2,20.6,1,30.1-3c9.5-3.9,17.7-10.6,23.4-19.2c5.7-8.6,8.8-18.7,8.8-29
	H305z"/>
<path class="st0" d="M289,251.5c0,8.4-2.5,16.6-7.2,23.6c-4.7,7-11.3,12.4-19.1,15.7c-7.8,3.2-16.3,4.1-24.6,2.4
	c-8.2-1.6-15.8-5.7-21.8-11.6s-10-13.5-11.6-21.8c-1.6-8.2-0.8-16.8,2.4-24.6c3.2-7.8,8.7-14.4,15.7-19.1s15.2-7.2,23.6-7.2v6.2
	c-7.2,0-14.2,2.1-20.2,6.1c-6,4-10.6,9.7-13.4,16.3c-2.8,6.6-3.5,13.9-2.1,21c1.4,7.1,4.9,13.5,9.9,18.6c5.1,5.1,11.6,8.5,18.6,9.9
	c7.1,1.4,14.4,0.7,21-2.1c6.6-2.8,12.3-7.4,16.3-13.4c4-6,6.1-13,6.1-20.2H289z"/>
<path class="st0" d="M273,251.5c0,5.2-1.6,10.4-4.5,14.7c-2.9,4.4-7.1,7.8-11.9,9.8c-4.8,2-10.2,2.5-15.3,1.5
	c-5.1-1-9.9-3.5-13.6-7.3c-3.7-3.7-6.2-8.4-7.3-13.6c-1-5.1-0.5-10.5,1.5-15.3c2-4.8,5.4-9,9.8-11.9c4.4-2.9,9.5-4.5,14.7-4.5v5
	c-4.3,0-8.4,1.3-11.9,3.6c-3.5,2.4-6.3,5.7-7.9,9.7c-1.6,3.9-2.1,8.3-1.2,12.4c0.8,4.2,2.9,8,5.9,11c3,3,6.8,5.1,11,5.9
	c4.2,0.8,8.5,0.4,12.4-1.2c3.9-1.6,7.3-4.4,9.7-7.9c2.4-3.5,3.6-7.7,3.6-12H273z"/>
<path class="st0" d="M259,251.5c0,2.5-0.7,4.9-2.1,6.9c-1.4,2.1-3.3,3.7-5.6,4.6c-2.3,0.9-4.8,1.2-7.2,0.7c-2.4-0.5-4.7-1.7-6.4-3.4
	c-1.7-1.7-2.9-4-3.4-6.4c-0.5-2.4-0.2-4.9,0.7-7.2c0.9-2.3,2.5-4.2,4.6-5.6c2.1-1.4,4.5-2.1,6.9-2.1v4.5c-1.6,0-3.1,0.5-4.5,1.4
	c-1.3,0.9-2.3,2.1-3,3.6c-0.6,1.5-0.8,3.1-0.5,4.6c0.3,1.6,1.1,3,2.2,4.1c1.1,1.1,2.6,1.9,4.1,2.2c1.6,0.3,3.2,0.2,4.6-0.5
	c1.5-0.6,2.7-1.6,3.6-3c0.9-1.3,1.4-2.9,1.4-4.5H259z"/>
<path class="st0" d="M253,193L253,193c28.7,0,52,23.3,52,52l0,0h-52V193z"/>
<path class="st0" d="M123.5,225h9c33.1,0,60,26.9,60,60v138h-69V225z"/>
<path class="st0" d="M54.5,107L54.5,107c30.1,0,54.5,24.4,54.5,54.5v80c0,30.1-24.4,54.5-54.5,54.5l0,0C24.4,296,0,271.6,0,241.5
	v-80C0,131.4,24.4,107,54.5,107z"/>
<ellipse class="st0" cx="248.5" cy="366.5" rx="56.5" ry="56.5"/>
<ellipse class="st1" cx="54.5" cy="241.5" rx="54.5" ry="54.5"/>
<ellipse class="st0" cx="142.5" cy="106.5" rx="49.5" ry="49.5"/>
<path class="st2" d="M204,57h89c6.6,0,12,5.4,12,12v112c0,6.6-5.4,12-12,12h-89c-6.6,0-12-5.4-12-12V69C192,62.4,197.4,57,204,57z"
	/>
<circle class="st3" cx="236.5" cy="114.5" r="6.5"/>
<circle class="st3" cx="236.5" cy="135.5" r="6.5"/>
<circle class="st3" cx="257.5" cy="114.5" r="6.5"/>
<circle class="st3" cx="257.5" cy="135.5" r="6.5"/>
<ellipse class="st1" cx="248.5" cy="366.5" rx="22.5" ry="22.5"/>
<path class="st1" d="M123.5,296c2.8,0,5.6-0.6,8.2-1.6c2.6-1.1,5-2.7,7-4.7c2-2,3.6-4.4,4.7-7c1.1-2.6,1.6-5.4,1.6-8.2
	s-0.6-5.6-1.6-8.2c-1.1-2.6-2.7-5-4.7-7c-2-2-4.4-3.6-7-4.7c-2.6-1.1-5.4-1.6-8.2-1.6v21.5V296z"/>
<path class="st0" d="M123.5,253c-5.7,0-11.2,2.3-15.2,6.3c-4,4-6.3,9.5-6.3,15.2s2.3,11.2,6.3,15.2c4,4,9.5,6.3,15.2,6.3v-21.5V253z
	"/>
<path class="st2" d="M62,296L62,296c34.2,0,62,27.8,62,62v3c0,34.2-27.8,62-62,62l0,0c-34.2,0-62-27.8-62-62v-3
	C0,323.8,27.8,296,62,296z"/>
<circle class="st3" cx="50.1" cy="348.1" r="7.1"/>
<circle class="st3" cx="50.1" cy="371" r="7.1"/>
<circle class="st3" cx="73" cy="348.1" r="7.1"/>
<circle class="st3" cx="73" cy="371" r="7.1"/>
<path class="st1" d="M109,239v-83h83L109,239z"/>
<path class="st0" d="M107,53.5c0,10.6-3.1,20.9-9,29.7c-5.9,8.8-14.2,15.7-24,19.7c-9.8,4-20.5,5.1-30.9,3s-19.9-7.2-27.4-14.6
	C8.2,83.8,3.1,74.3,1,63.9S0,42.8,4.1,33c4-9.8,10.9-18.1,19.7-24c8.8-5.9,19.1-9,29.7-9v5.8c-9.4,0-18.6,2.8-26.5,8
	c-7.8,5.2-14,12.7-17.6,21.4C5.8,44,4.9,53.6,6.7,62.8c1.8,9.2,6.4,17.7,13,24.4c6.7,6.7,15.2,11.2,24.4,13
	c9.2,1.8,18.8,0.9,27.5-2.7c8.7-3.6,16.2-9.7,21.4-17.6c5.2-7.8,8-17.1,8-26.5H107z"/>
<path class="st0" d="M92,53.5c0,7.6-2.3,15.1-6.5,21.4c-4.2,6.3-10.2,11.3-17.3,14.2c-7,2.9-14.8,3.7-22.2,2.2
	c-7.5-1.5-14.3-5.2-19.7-10.5S17.2,68.5,15.7,61c-1.5-7.5-0.7-15.2,2.2-22.2c2.9-7,7.8-13,14.2-17.3c6.3-4.2,13.8-6.5,21.4-6.5v5.6
	c-6.5,0-12.9,1.9-18.3,5.5c-5.4,3.6-9.6,8.8-12.1,14.8c-2.5,6-3.1,12.6-1.9,19c1.3,6.4,4.4,12.3,9,16.9s10.5,7.7,16.9,9
	c6.4,1.3,13,0.6,19-1.9c6-2.5,11.2-6.7,14.8-12.1c3.6-5.4,5.5-11.8,5.5-18.3H92z"/>
<path class="st0" d="M78,53.5c0,4.8-1.4,9.6-4.1,13.6s-6.5,7.2-11,9c-4.5,1.9-9.4,2.3-14.2,1.4c-4.8-0.9-9.1-3.3-12.5-6.7
	c-3.4-3.4-5.8-7.8-6.7-12.5c-0.9-4.8-0.5-9.7,1.4-14.2c1.9-4.5,5-8.3,9-11c4-2.7,8.8-4.1,13.6-4.1v4.6c-3.9,0-7.8,1.2-11,3.4
	c-3.3,2.2-5.8,5.3-7.3,8.9s-1.9,7.6-1.1,11.5c0.8,3.9,2.7,7.4,5.4,10.2s6.3,4.7,10.2,5.4c3.9,0.8,7.9,0.4,11.5-1.1
	c3.6-1.5,6.7-4.1,8.9-7.3c2.2-3.3,3.4-7.1,3.4-11H78z"/>
<path class="st0" d="M65,53.5c0,2.3-0.7,4.5-1.9,6.4c-1.3,1.9-3.1,3.4-5.2,4.2c-2.1,0.9-4.4,1.1-6.6,0.7c-2.2-0.4-4.3-1.5-5.9-3.1
	c-1.6-1.6-2.7-3.7-3.1-5.9c-0.4-2.2-0.2-4.5,0.7-6.6c0.9-2.1,2.3-3.9,4.2-5.2c1.9-1.3,4.1-1.9,6.4-1.9v4.1c-1.5,0-2.9,0.4-4.1,1.2
	c-1.2,0.8-2.2,2-2.7,3.3c-0.6,1.3-0.7,2.8-0.4,4.3c0.3,1.4,1,2.7,2,3.8c1,1,2.3,1.7,3.8,2c1.4,0.3,2.9,0.1,4.3-0.4
	c1.3-0.6,2.5-1.5,3.3-2.7c0.8-1.2,1.2-2.6,1.2-4.1H65z"/>
<path class="st0" d="M59,0h1c26,0,47,21,47,47l0,0H59V0z"/>
<path class="st0" d="M133.5,0h143C292.2,0,305,12.8,305,28.5l0,0c0,15.7-12.8,28.5-28.5,28.5h-143C117.8,57,105,44.2,105,28.5l0,0
	C105,12.8,117.8,0,133.5,0z"/>
<ellipse class="st1" cx="276.5" cy="28.5" rx="23.5" ry="23.5"/>
<ellipse class="st1" cx="133.5" cy="28.5" rx="23.5" ry="23.5"/>
</svg>
