<svg width="100" height="100" viewBox="0 0 100 100" fill="none" xmlns="http://www.w3.org/2000/svg">
<path fill-rule="evenodd" clip-rule="evenodd" d="M50.3306 12.2927C60.4755 11.9365 71.2555 10.8696 79.2116 17.267C87.8996 24.2528 92.5449 35.3342 92.9652 46.5746C93.4016 58.2425 89.7397 70.0546 81.49 78.1942C73.337 86.2383 61.5869 90.2783 50.3306 88.6405C40.1962 87.1659 34.4604 77.3636 26.9863 70.2637C19.0532 62.7277 6.82436 57.5734 6.04748 46.5746C5.25367 35.336 14.5536 26.0615 23.3814 19.2274C31.041 13.2977 40.7023 12.6308 50.3306 12.2927Z" fill="#E0F1FF"/>
<circle cx="31.5" cy="64.5" r="18.5" fill="#85C5FF"/>
<path d="M47 32L44 35" stroke="#0083F8" stroke-width="2" stroke-linecap="round" stroke-linejoin="round"/>
<path d="M44 29L47 32" stroke="#0083F8" stroke-width="2" stroke-linecap="round" stroke-linejoin="round"/>
<path d="M47 32H43C39.686 32 37 34.686 37 38" stroke="#0083F8" stroke-width="2" stroke-linecap="round" stroke-linejoin="round"/>
<path d="M63 64L66 61" stroke="#0083F8" stroke-width="2" stroke-linecap="round" stroke-linejoin="round"/>
<path d="M66 67L63 64" stroke="#0083F8" stroke-width="2" stroke-linecap="round" stroke-linejoin="round"/>
<path d="M63 64H67C70.314 64 73 61.314 73 58" stroke="#0083F8" stroke-width="2" stroke-linecap="round" stroke-linejoin="round"/>
<path d="M67.7776 35.222C72.0556 39.5 72.0556 46.5 67.7776 50.778C67.4356 51.12 67.0616 51.406 66.6836 51.684" stroke="#0083F8" stroke-width="2" stroke-linecap="round" stroke-linejoin="round"/>
<path d="M67.7777 35.222C63.4997 30.944 56.4997 30.944 52.2217 35.222C51.8817 35.562 51.5897 35.932 51.3057 36.306" stroke="#0083F8" stroke-width="2" stroke-linecap="round" stroke-linejoin="round"/>
<path d="M61 53C61 59.076 56.076 64 50 64C43.924 64 39 59.076 39 53C39 46.924 43.924 42 50 42C56.076 42 61 46.924 61 53" stroke="#0083F8" stroke-width="2" stroke-linecap="round" stroke-linejoin="round"/>
<path fill-rule="evenodd" clip-rule="evenodd" d="M52.0537 57.476H46.8037V52.976H52.0517C53.2957 52.976 54.3017 53.984 54.3017 55.226V55.226C54.3037 56.47 53.2977 57.476 52.0537 57.476Z" stroke="#0083F8" stroke-width="2" stroke-linecap="round" stroke-linejoin="round"/>
<path d="M46.8037 52.976V48.334H51.4857C52.7677 48.334 53.8057 49.372 53.8057 50.656V50.656C53.8057 51.938 52.7677 52.976 51.4857 52.976" stroke="#0083F8" stroke-width="2" stroke-linecap="round" stroke-linejoin="round"/>
</svg>
