<svg width="100" height="100" viewBox="0 0 100 100" fill="none" xmlns="http://www.w3.org/2000/svg">
<path fill-rule="evenodd" clip-rule="evenodd" d="M39.7418 10.0175C49.3593 10.5269 51.3498 24.2653 58.7475 30.4911C67.7823 38.0945 85.1882 37.9267 86.8704 49.6798C88.5271 61.2549 73.9146 67.6827 65.1683 75.3511C57.3771 82.1819 50.0603 91.0773 39.7418 90.9995C29.4654 90.922 20.2464 83.7003 14.6925 74.9703C9.99579 67.5876 12.716 58.4224 13.455 49.6798C14.0954 42.1029 14.4431 34.6864 18.6318 28.3665C23.9998 20.267 30.1026 9.50699 39.7418 10.0175Z" fill="#E0F1FF"/>
<circle cx="64.5" cy="30.5" r="18.5" fill="#85C5FF"/>
<path fill-rule="evenodd" clip-rule="evenodd" d="M64.6372 54.5942L64.735 54.5698C66.071 54.2357 67.0082 53.0352 67.0082 51.6581V50.3412C67.0082 48.964 66.0709 47.7636 64.7349 47.4295L64.6369 47.405C63.6183 47.1498 62.7809 46.4271 62.3793 45.4569C61.9778 44.4867 62.0596 43.3836 62.5998 42.4832L62.641 42.4145C63.3586 41.2316 63.1763 39.7117 62.1993 38.7321L61.2681 37.8009C60.2943 36.8271 58.7827 36.641 57.6018 37.3495L57.5151 37.4015C56.6148 37.9417 55.5118 38.0233 54.5418 37.6215C53.5718 37.2197 52.8495 36.3821 52.5949 35.3635L52.5704 35.2657C52.2363 33.9297 51.0359 32.9925 49.6588 32.9925H48.3418C46.9647 32.9925 45.7642 33.9297 45.4302 35.2657L45.4056 35.3638C45.1504 36.3824 44.4278 37.2198 43.4575 37.6214C42.4873 38.023 41.3842 37.9412 40.4838 37.4009L40.4151 37.3597C39.2322 36.6421 37.7123 36.8244 36.7327 37.8014L35.8015 38.7326C34.8277 39.7063 34.6415 41.2177 35.3499 42.3986L35.4012 42.484C35.9415 43.3844 36.0233 44.4876 35.6217 45.4578C35.2202 46.428 34.3827 47.1507 33.3642 47.4059L33.2664 47.4304C31.9304 47.7644 30.9932 48.9648 30.9932 50.3419V51.659C30.9932 53.0359 31.9299 54.2362 33.2657 54.5702L33.3628 54.5945C34.3815 54.8491 35.2194 55.5713 35.6215 56.5413C36.0236 57.5113 35.9424 58.6145 35.4027 59.5152L35.3508 59.6016C34.6423 60.7825 34.8284 62.294 35.8021 63.2678L36.7334 64.1991C37.7068 65.1729 39.2181 65.3591 40.3988 64.6508L40.4846 64.5993C41.385 64.059 42.4881 63.9771 43.4584 64.3787C44.4286 64.7803 45.1513 65.6177 45.4065 66.6363L45.431 66.7341C45.765 68.0701 46.9654 69.0075 48.3425 69.0075H49.6596C51.0365 69.0075 52.2368 68.0706 52.5708 66.7348L52.5951 66.6378C52.8497 65.6191 53.5719 64.7812 54.5419 64.3791C55.5119 63.977 56.6151 64.0582 57.5157 64.598L57.6022 64.6499C58.7831 65.3584 60.2946 65.1723 61.2684 64.1985L62.1998 63.2672C63.1735 62.2938 63.3598 60.7825 62.6514 59.6018L62.6 59.516C62.0597 58.6156 61.9779 57.5125 62.3795 56.5422C62.7811 55.572 63.6186 54.8494 64.6372 54.5942Z" stroke="#0083F8" stroke-width="2" stroke-linecap="round" stroke-linejoin="round"/>
<path d="M53.0874 48.447L47.9786 53.5558L44.916 50.4906" stroke="#0083F8" stroke-width="2" stroke-linecap="round" stroke-linejoin="round"/>
</svg>
