<svg width="100" height="100" viewBox="0 0 100 100" fill="none" xmlns="http://www.w3.org/2000/svg">
<path fill-rule="evenodd" clip-rule="evenodd" d="M50.3306 12.2927C60.4755 11.9365 71.2555 10.8696 79.2116 17.267C87.8996 24.2528 92.5449 35.3342 92.9652 46.5746C93.4016 58.2425 89.7397 70.0546 81.49 78.1942C73.337 86.2383 61.5869 90.2783 50.3306 88.6405C40.1962 87.1659 34.4604 77.3636 26.9863 70.2637C19.0532 62.7277 6.82436 57.5734 6.04748 46.5746C5.25367 35.336 14.5536 26.0615 23.3814 19.2274C31.041 13.2977 40.7023 12.6308 50.3306 12.2927Z" fill="#E0F1FF"/>
<circle cx="31.5" cy="64.5" r="18.5" fill="#85C5FF"/>
<path d="M37 40H73" stroke="#0083F8" stroke-width="2" stroke-linecap="round" stroke-linejoin="round"/>
<path d="M49 48H45" stroke="#0083F8" stroke-width="2" stroke-linecap="round" stroke-linejoin="round"/>
<path d="M55 60H43C39.6863 60 37 57.3137 37 54V38C37 34.6863 39.6863 32 43 32H67C70.3137 32 73 34.6863 73 38V46" stroke="#0083F8" stroke-width="2" stroke-linecap="round" stroke-linejoin="round"/>
<path d="M65.5 58V55.5C65.5 53.567 67.067 52 69 52V52C70.933 52 72.5 53.567 72.5 55.5V58" stroke="#0083F8" stroke-width="2" stroke-linecap="round" stroke-linejoin="round"/>
<rect x="63" y="58" width="12" height="8" rx="1.25" stroke="#0083F8" stroke-width="2" stroke-linecap="round" stroke-linejoin="round"/>
</svg>
