<?xml version="1.0" encoding="utf-8"?>
<!-- Generator: Adobe Illustrator 26.2.1, SVG Export Plug-In . SVG Version: 6.00 Build 0)  -->
<svg version="1.1" id="Layer_1" xmlns="http://www.w3.org/2000/svg" xmlns:xlink="http://www.w3.org/1999/xlink" x="0px" y="0px"
	 viewBox="0 0 588 319" style="enable-background:new 0 0 588 319;" xml:space="preserve">
<style type="text/css">
	.st0{fill:none;stroke:#0083F8;stroke-width:7;stroke-linecap:round;}
	.st1{fill:#0083F8;}
	.st2{fill:#03294A;}
	.st3{fill:#072BA7;}
</style>
<path class="st0" d="M4,213.5c50.8,10.4,27,80.3,64.2,98.9c44.4,22.2,59.7-102.8,54-155.9c-1.7-23.3-28.8-33.6-32.4,0
	c-3.9,35.7,40.4,174.2,91.2,120.7l33.9-39.2c9.4-11.6,28-27.7,43.7,0c15.7,27.7,40.7,18.6,51.3,10.5l33.1-24.1"/>
<path class="st1" d="M359,106.5l-68-31L588,0L359,106.5z"/>
<path class="st2" d="M588,0L369,207l38.4-78.7L588,0z"/>
<path class="st1" d="M487.7,197l-80.2-68.5L588,0L487.7,197z"/>
<path class="st3" d="M369,207l-10-100.5L588,0L407.5,128.5L369,207z"/>
</svg>
