<svg width="100" height="100" viewBox="0 0 100 100" fill="none" xmlns="http://www.w3.org/2000/svg">
<path fill-rule="evenodd" clip-rule="evenodd" d="M39.7418 10.0175C49.3593 10.5269 51.3498 24.2653 58.7475 30.4911C67.7823 38.0945 85.1882 37.9267 86.8704 49.6798C88.5271 61.2549 73.9146 67.6827 65.1683 75.3511C57.3771 82.1819 50.0603 91.0773 39.7418 90.9995C29.4654 90.922 20.2464 83.7003 14.6925 74.9703C9.99579 67.5876 12.716 58.4224 13.455 49.6798C14.0954 42.1029 14.4431 34.6864 18.6318 28.3665C23.9998 20.267 30.1026 9.50699 39.7418 10.0175Z" fill="#E0F1FF"/>
<circle cx="64.5" cy="30.5" r="18.5" fill="#85C5FF"/>
<path fill-rule="evenodd" clip-rule="evenodd" d="M48.9691 70.212C48.9691 70.212 64.3131 65.566 64.3131 52.758C64.3131 39.948 64.8691 38.948 63.6391 37.716C62.4071 36.484 50.9811 32.5 48.9691 32.5C46.9571 32.5 35.5311 36.484 34.3011 37.716C33.0691 38.948 33.6251 39.948 33.6251 52.758C33.6251 65.566 48.9691 70.212 48.9691 70.212Z" stroke="#0083F8" stroke-width="2" stroke-linecap="round" stroke-linejoin="round"/>
<path d="M43.7715 50.7492L47.5555 54.5392L55.3515 46.7392" stroke="#0083F8" stroke-width="2" stroke-linecap="round" stroke-linejoin="round"/>
</svg>
