<?xml version="1.0" encoding="utf-8"?>
<!-- Generator: Adobe Illustrator 26.2.1, SVG Export Plug-In . SVG Version: 6.00 Build 0)  -->
<svg version="1.1" id="Layer_1" xmlns="http://www.w3.org/2000/svg" xmlns:xlink="http://www.w3.org/1999/xlink" x="0px" y="0px"
	 viewBox="0 0 717 653" style="enable-background:new 0 0 717 653;" xml:space="preserve">
<style type="text/css">
	.st0{fill:#E2F3FF;}
	.st1{fill:#FFAB2D;}
	.st2{fill:#0083F8;}
</style>
<path class="st0" d="M170.2,228.4c7,2.6,14.8-1,17.3-8s-1-14.8-8-17.3L170.2,228.4z M98.7,71.4L86,66.9l-0.1,0.3l-0.1,0.4L98.7,71.4
	z M336.2,78l-8.1,10.8l0.2,0.1l0.2,0.1L336.2,78z M616.2,128.7c4.5-6,3.2-14.4-2.7-18.9L516.2,37c-6-4.5-14.4-3.2-18.9,2.7
	c-4.5,6-3.2,14.4,2.7,18.9l86.5,64.7l-64.7,86.5c-4.5,6-3.2,14.4,2.7,18.9c6,4.5,14.4,3.2,18.9-2.7L616.2,128.7z M174.8,215.7
	c4.6-12.7,4.7-12.7,4.7-12.7c0,0,0,0,0,0c0,0,0,0,0,0c0,0,0,0,0,0c0,0-0.1,0-0.1-0.1c-0.1-0.1-0.4-0.1-0.7-0.3
	c-0.6-0.3-1.6-0.7-2.9-1.2c-2.6-1.1-6.3-2.9-10.7-5.4c-8.8-4.9-20.2-12.4-30.5-22.7c-20.2-20.2-36.9-51.3-23-98.1l-25.9-7.7
	c-17.3,58.2,4.1,99.2,29.8,124.9c12.6,12.6,26.2,21.5,36.5,27.3c5.2,2.9,9.6,5,12.8,6.4c1.6,0.7,2.9,1.2,3.8,1.6
	c0.5,0.2,0.8,0.3,1.1,0.4c0.1,0.1,0.2,0.1,0.3,0.1c0,0,0.1,0,0.1,0c0,0,0,0,0,0c0,0,0,0,0,0C170.2,228.4,170.2,228.4,174.8,215.7z
	 M111.4,76c7.2-20.1,26-42,59.1-47.3c33.6-5.3,85,6.1,157.6,60.1l16.1-21.7C268.9,11,210.1-4.9,166.3,2C122,9,96,38.9,86,66.9
	L111.4,76z M328.5,89.1c69.9,48.5,145.5,64.1,278.8,44.9l-3.9-26.7c-129.1,18.6-197.1,3-259.6-40.4L328.5,89.1z"/>
<path class="st1" d="M17.9,238.2c-7.4-1-14.2,4.1-15.2,11.5c-1,7.4,4.1,14.2,11.5,15.2L17.9,238.2z M117.5,265.7l1.9-13.4l0,0
	L117.5,265.7z M120,466.7l12.6,4.9l0.1-0.4l0.1-0.4L120,466.7z M286,553.8c5.8-4.7,6.8-13.2,2.1-19l-75.9-94.9
	c-4.7-5.8-13.2-6.8-19-2.1c-5.8,4.7-6.8,13.2-2.1,19l67.5,84.3l-84.3,67.5c-5.8,4.7-6.8,13.2-2.1,19c4.7,5.8,13.2,6.8,19,2.1
	L286,553.8z M14.1,265l101.5,14.1l3.7-26.7L17.9,238.2L14.1,265z M115.7,279.1c9.2,1.3,21.6,5.5,29.8,12.9c3.9,3.5,6.6,7.5,7.9,12.2
	c1.3,4.6,1.5,10.8-1.3,19.1l25.7,8.4c4.1-12.7,4.5-24.4,1.6-34.8c-2.9-10.4-8.9-18.7-15.9-24.9c-13.5-12.2-31.7-17.8-44.1-19.5
	L115.7,279.1z M152.1,323.3c-13.8,42.2-35.7,110.4-45,139.3l25.7,8.2c9.2-28.8,31.1-97,44.9-139.1L152.1,323.3z M107.4,461.8
	c-4.4,11.3-7.3,29.4-0.2,46.4c7.6,18.3,25.4,31.7,55.2,35.3l3.2-26.8c-22.6-2.7-30.4-11.7-33.5-18.9c-3.6-8.5-2.3-19,0.5-26.2
	L107.4,461.8z M162.4,543.5c52.4,6.2,97.6,11.4,113.7,13.2l3-26.8c-16-1.8-61.1-6.9-113.4-13.1L162.4,543.5z"/>
<path class="st2" d="M229.3,165.6c-4.1-6.2-12.4-8-18.7-3.9c-6.2,4.1-8,12.4-3.9,18.7L229.3,165.6z M703.9,410.9
	c7.4-0.4,13.1-6.8,12.7-14.3l-7.1-121.3c-0.4-7.4-6.8-13.1-14.3-12.7c-7.4,0.4-13.1,6.8-12.7,14.3l6.3,107.8L581,391.1
	c-7.4,0.4-13.1,6.8-12.7,14.3c0.4,7.4,6.8,13.1,14.3,12.7L703.9,410.9z M206.7,180.4c33.2,50.8,136.9,149.2,289.9,142.4l-1.2-27
	c-140.6,6.3-236.3-84.6-266.1-130.2L206.7,180.4z M496.6,322.8c70.9-3.2,113.7,12.9,141.4,31.2c14,9.3,24.5,19.4,33.2,28.7
	c4.4,4.8,8.2,9.1,11.9,13.4c3.6,4.1,7.3,8.1,11,11.4l17.9-20.2c-2.4-2.1-5.2-5.1-8.8-9.2c-3.5-3.9-7.7-8.8-12.3-13.8
	c-9.5-10.2-21.7-22-38.1-32.9c-33-21.9-81.6-39-157.5-35.7L496.6,322.8z"/>
</svg>
