<?xml version="1.0" encoding="utf-8"?>
<!-- Generator: Adobe Illustrator 26.2.1, SVG Export Plug-In . SVG Version: 6.00 Build 0)  -->
<svg version="1.1" id="Layer_1" xmlns="http://www.w3.org/2000/svg" xmlns:xlink="http://www.w3.org/1999/xlink" x="0px" y="0px"
	 viewBox="0 0 1115 636" style="enable-background:new 0 0 1115 636;" xml:space="preserve">
<style type="text/css">
	.st0{fill:#0083F8;}
	.st1{fill:#E2F3FF;}
	.st2{fill:#FFAB2D;}
</style>
<path class="st0" d="M1,279.3c-2.1,8,2.7,16.2,10.7,18.3l130.6,34.2c8,2.1,16.2-2.7,18.3-10.7c2.1-8-2.7-16.2-10.7-18.3L33.8,272.4
	l30.4-116.1c2.1-8-2.7-16.2-10.7-18.3c-8-2.1-16.2,2.7-18.3,10.7L1,279.3z M424.3,252.3c7.3,4,16.4,1.3,20.4-6
	c4-7.3,1.3-16.4-6-20.4L424.3,252.3z M23.1,296.1c49.7-29,100-66,164-83.2c62.5-16.8,138.6-14.5,237.3,39.4l14.4-26.3
	c-104.9-57.3-188.9-61-259.4-42.1c-69.1,18.6-125,59.2-171.3,86.3L23.1,296.1z"/>
<path class="st1" d="M451.6,382.4c-5.4,6.3-4.7,15.8,1.6,21.1l102.5,87.8c6.3,5.4,15.8,4.7,21.2-1.6c5.4-6.3,4.7-15.8-1.6-21.2
	l-91.1-78.1l78.1-91.1c5.4-6.3,4.7-15.8-1.6-21.1c-6.3-5.4-15.8-4.7-21.2,1.6L451.6,382.4z M837.2,559.7c4.5,7,13.8,8.9,20.7,4.4
	c7-4.5,8.9-13.8,4.4-20.7L837.2,559.7z M464.2,407.1c44.2-3.4,106.6-11.9,174,3.8c66.5,15.5,138.2,54.7,199.1,148.7l25.2-16.3
	c-65.2-100.7-143.7-144.5-217.4-161.6c-72.9-17-140.8-7.8-183.1-4.5L464.2,407.1z"/>
<path class="st2" d="M447.4,0.2c-8.2-0.8-15.6,5.2-16.4,13.5L418,148c-0.8,8.2,5.2,15.6,13.5,16.4c8.2,0.8,15.6-5.2,16.4-13.5
	l11.6-119.4l119.4,11.6c8.2,0.8,15.6-5.2,16.4-13.5c0.8-8.2-5.2-15.6-13.5-16.4L447.4,0.2z M1086,431.7c3.7,7.4,12.6,10.5,20.1,6.9
	c7.4-3.6,10.5-12.6,6.9-20.1L1086,431.7z M434.4,24.7c15,18.3,40.2,56.4,87,92.3c47.2,36.2,116.2,70.2,220.6,84.1l4-29.7
	c-99.5-13.3-163.5-45.3-206.4-78.2c-43.2-33.1-65.1-66.9-82-87.5L434.4,24.7z M742,201c197.8,26.4,312.1,165.7,344,230.7l26.9-13.2
	c-35.1-71.6-156.8-219.2-367-247.3L742,201z"/>
</svg>
