<svg width="100" height="100" viewBox="0 0 100 100" fill="none" xmlns="http://www.w3.org/2000/svg">
<path fill-rule="evenodd" clip-rule="evenodd" d="M39.7418 10.0175C49.3593 10.5269 51.3498 24.2653 58.7475 30.4911C67.7823 38.0945 85.1882 37.9267 86.8704 49.6798C88.5271 61.2549 73.9146 67.6827 65.1683 75.3511C57.3771 82.1819 50.0603 91.0773 39.7418 90.9995C29.4654 90.922 20.2464 83.7003 14.6925 74.9703C9.99579 67.5876 12.716 58.4224 13.455 49.6798C14.0954 42.1029 14.4431 34.6864 18.6318 28.3665C23.9998 20.267 30.1026 9.50699 39.7418 10.0175Z" fill="#F7EEFC"/>
<circle cx="64.5" cy="30.5" r="18.5" fill="#D3A1ED"/>
<path fill-rule="evenodd" clip-rule="evenodd" d="M57 69H41C38.79 69 37 67.21 37 65V37C37 34.79 38.79 33 41 33H57C59.21 33 61 34.79 61 37V65C61 67.21 59.21 69 57 69Z" stroke="#AF52DE" stroke-width="2" stroke-linecap="round" stroke-linejoin="round"/>
<path d="M48.998 61.5C48.722 61.5 48.498 61.724 48.5 62C48.5 62.276 48.724 62.5 49 62.5C49.276 62.5 49.5 62.276 49.5 62C49.5 61.724 49.276 61.5 48.998 61.5" stroke="#AF52DE" stroke-width="2" stroke-linecap="round" stroke-linejoin="round"/>
<path d="M46.5 39H51.5" stroke="#AF52DE" stroke-width="2" stroke-linecap="round" stroke-linejoin="round"/>
</svg>
